<?xml version="1.0" standalone="no"?>
<!DOCTYPE svg PUBLIC "-//W3C//DTD SVG 20010904//EN"
 "http://www.w3.org/TR/2001/REC-SVG-20010904/DTD/svg10.dtd">
<svg version="1.0" xmlns="http://www.w3.org/2000/svg"
 width="606.000000pt" height="606.000000pt" viewBox="0 0 606.000000 606.000000"
 preserveAspectRatio="xMidYMid meet">
<metadata>
Created by potrace 1.11, written by Peter Selinger 2001-2013
</metadata>
<g transform="translate(0.000000,606.000000) scale(0.100000,-0.100000)"
fill="#000000" stroke="none">
<path d="M1085 5668 c-256 -62 -441 -177 -579 -358 -66 -86 -138 -218 -151
-275 -1 -5 -5 -17 -8 -25 -10 -23 -27 -99 -35 -155 -4 -27 -7 -862 -7 -1855
l0 -1805 23 -86 c93 -355 344 -614 688 -712 l79 -22 1676 -3 1677 -2 12 -31
c18 -43 49 -79 77 -90 33 -12 72 16 103 75 l23 46 126 2 c156 1 165 2 221 18
25 8 53 15 63 17 10 2 52 17 93 34 233 97 445 317 529 550 59 165 58 156 61
769 l2 565 24 45 c12 25 25 47 28 50 6 6 19 29 76 136 43 79 45 87 33 115 -13
33 -44 50 -81 44 -13 -2 -35 -6 -50 -9 -18 -3 -28 0 -29 7 0 7 -2 489 -3 1072
-2 583 -6 1071 -9 1085 -7 25 -14 58 -21 95 -15 73 -74 202 -135 295 -50 77
-158 188 -228 235 -32 22 -60 42 -63 45 -24 26 -200 99 -305 127 -45 12 -3861
13 -3910 1z"/>
</g>
</svg>
